<?xml version="1.0" encoding="UTF-8"?>
<svg id="Layer_1" data-name="Layer 1" xmlns="http://www.w3.org/2000/svg" viewBox="0 0 570.91 570.91">
  <defs>
    <style>
      .cls-1 {
        fill: #e86807;
      }

      .cls-2 {
        fill: none;
        stroke: #e86807;
        stroke-miterlimit: 10;
        stroke-width: 6px;
      }
    </style>
  </defs>
  <g>
    <path class="cls-1" d="M303.78.78c118.73,7.8,220.79,88.84,254.47,203.59,11,37.48,12.17,66.71,10.34,105.98-.96,20.65-4.86,40.01-10.85,59.68-10.11,33.18-26.07,63.71-47.42,90.94l-14.55,16.97-15.32,15.39c-14.24,13.26-29.48,24.39-46.15,34.45l-31.23,16.51-22.86,9.12-13.12,4.29-28.97,7.54c-1.36.35-4.02-.36-5.29-.45-11.77,1.2-23.07,3.37-34.92,3.34l-26.56-.07c-28.09-1.5-55.64-7.01-81.93-16.85l-16.45-6.71c-10.39-4.24-20.63-9.3-30.09-14.73C67.52,486.52,16.76,409.6,4.62,325.74c-13.38-92.4,18.49-183.93,85.48-247.49C138.69,32.14,201.24,5.57,267.37.78h36.41ZM448.71,359.27c6.39-.34,12.2,1.14,17.06,3.99,10.4,6.09,13.32,16.8,14.25,20.17,1.81,6.57,1.4,12.22.92,15.47,7.23-11.39,15.17-26.34,21.39-44.73,10.3-30.48,11.47-57.48,10.73-75.54l-.62-10.77c-.77-6.46-1.53-12.93-2.3-19.39,1.15,2.35,2.25,4.78,3.3,7.29,9.76,23.3,11.88,46.2,10.95,65.56l-.48,10.05-.57,7.94c-2.48,24.46-9.12,55.73-26.1,88.04-3.97,7.57-8.17,14.54-12.43,20.93l-14.42,20.18c-.37.56-.52.88-.44.96.26.24,2.84-2.03,7.75-6.82,10.46-10.03,20.02-20.59,27.28-33.22l4.63-6.9c5.64-10.82,9.75-21.83,13.65-33.45,5.52-16.45,8.66-33.18,10.53-50.45l.72-15.04.14-11.64-2.57-25.54c-2.5-24.16-9.93-42.09-16.17-53.76-5.4-10.12-23.01-43.1-40.32-40.51-8.69,1.3-17.65,11.61-15.36,18.2,2.27,6.56,14.93,7.26,15.5,7.28l8.99-2.16c-4.18,8.38-13.02,12.91-22.24,11.5-13.38-2.04-24.19-13.89-25.88-27.45-1.9-15.2,4.43-27.23,15.77-36.92,7.88-6.73,18.22-9.96,28.43-10.04,1.68-.01,9.61-.23,19.43,3.24,17.65,6.23,27.85,19.42,32.11,25.8.96,1.43,1.6,1.57,1.76,1.46,1.22-.79-8.91-29.44-31.45-39.14-5.3-2.28-10.04-2.97-12.74-3.23l-7.31-.33-7.01.47-11.55,2.17-9.74,3.23c-18.71,7.07-36.21,15.47-54.41,23.87l-60.55,27.94-6.24,4.32c-6.29,5.16-6.54,12.86-2.64,19.49,4.96,8.42,10.95,18.07,5.86,26.7-2.86,4.84-7.85,7.22-12.72,9.39l-21.79,9.72-13.99,6.62c-7.75,3.67-18.33,1.34-22.05-7.06l-15.13-34.08-14.9-34.25-13.64-30.8c-1.61-3.63-3.98-8.24-3.94-11.64.09-8.43,5.32-12.75,11.87-15.69l39.27-17.62c7.16-3.21,16.37-.36,19.5,6.92l9.01,20.95c2.89,6.71,9.64,10.31,17.33,8.88,3.29-.61,6.75-2.37,9.95-4.04l67.86-35.38c10.36-5.4,20.23-10.22,29.94-16.55,8.27-5.39,14.89-12.9,18.44-22.16,2.66-6.93,2.9-15.31-1.39-21.57-11.15-16.28-36.85-28.07-56.18-33.74-20.3-5.95-40.52-10.19-61.72-12.18-32.67-3.06-64.78,4.82-94.77,17.33-11.24,4.69-21.6,9.64-31.6,16.4l-13.69,9.26c-22.83,18.03-53.17,46.95-77.92,89.66-13.35,23.05-36.26,63.64-39.21,120.6-1.4,27.01,2.12,49.56,5.67,65.21-1.54-2.95-3.74-7.38-6.06-12.88-15.82-37.55-14.5-71.31-13.62-89.03.84-16.91,3.92-41.98,14.57-70.92-4.77,7.06-8.11,13.32-10.35,17.93-8.97,18.5-11.71,34.26-12.56,40.02-.79,5.34-1.2,9.66-1.29,12.67-.26,8.59-.64,17.22.06,25.78.61,7.52,1.02,14.8,2.16,22.19,5.68,36.85,18.98,72.3,43.5,100.35,8.25,9.44,17.79,16.98,28.4,23.05,4.66,2.66,14.07,5.74,21.02,1.53.87-.52,5.26-3.19,5.97-8.29.53-3.78-1.17-7.45-3.57-9.53-4.3-3.72-12.12-3.41-18.28,1.73,1.54-8.65,9.82-12.94,18.07-13.27,12.21-.5,22.4,6.93,27.41,18.09,5.71,12.72,3.61,27.86-6.25,38.11-7.77,8.07-18.29,11.79-29.74,12.45,6.65,7.05,16.33,15.64,29.55,22.81,5.88,3.19,11.5,5.58,16.61,7.4-21.31-5.83-48.51-16.26-75.86-35.77-8.45-6.03-15.94-12.22-22.55-18.31,5.02,9.46,12.09,20.2,22.1,30.61,32.81,34.13,74.69,41.32,91.53,43.22l.5-35.48c.25-17.83,9.18-29.89,26.1-35.03,13.81-4.2,25.5-15.65,27.21-29.93.65-5.45-.62-10.34-3.48-14.05-3.15-4.09-7.55-5.63-9.48-6.27-23.13-7.65-91.66-21.05-123.53-45.99-8.72-6.82-20.22-18.82-28.55-40.9l142.59-.29,265.19-.36c-.24,4.52-1.13,11.33-4.47,18.64-22.41,49.07-115.16,32.12-125.91,67.95-5.68,18.94,13.06,47.61,23.37,51.5,7.12,2.68,12.93,5.3,18.7,12.8,6.06,7.88,7.19,17.23,7.22,23.84-.07,5.44-.15,10.87-.22,16.31,6.02-2.89,10.15-5.49,14.58-9.42,16.31-14.45,29.11-32.43,37.76-52.5,3.1-7.21,3.75-14.54,1.36-21.57-2.15-6.32-6.64-10.1-13.27-10.41-6.37-.3-11.08,3.21-12.79,9.45-1.6,5.87.92,12.21,6.52,13.83,4.73,1.37,9.34-4.79,10.06-4.05.86.87-4.07,10.95-11.63,12.02-8.4,1.19-17.88-9.02-19.25-18.62-2.47-17.39,10.74-33.89,28.79-34.86ZM240.89,166c-.39-1,1.03-3.02,1.84-2.64l9.28,4.33c-1.16-4.72-6.86-5.68-6.39-12.15.17-2.39,1.64-4.93,3.89-6.6l14.64-10.9c-5.8,1.56-10.14,3.8-15.05,6.21-5.91,2.91-12.58,5.06-17.7,9.48-2.6,2.35,0,7.09,1.08,9.57l13.66,31.06c1.75-.29,3.36-1.42,4.61-3.08l-9.85-25.27ZM305.9,253.17c6.23-2.57,12.22-4.99,17.9-8.48,1.95-1.2,2.42-4.47,1.58-6.24l-9.73-20.39c-1.06-2.22-1.84-4.1-3.37-6.03l2.05,9.04c2.61,11.52,8.65,18.14-.61,24.75l-11.74,8.36c1.6-.2,2.71-.49,3.93-1ZM188.47,320.2c-1.13-4.69-2.26-9.38-3.39-14.07l-67.64.08c8.15,3.14,17.55,6.18,28.12,8.63,16.21,3.75,30.83,5.1,42.91,5.36ZM312.21,519.99c-6.09-1.5-12.43-2.44-17.73-3.53-3.55,1.05-9.41,2.67-16.73,4.13-54.44,10.86-100.14-4.92-117.19-11.04-10.2-3.66-24.88-9.69-41.64-19.5,10.86,8.68,25.96,18.89,45.47,27.18,31.3,13.3,59.59,15.55,77.34,15.5,12.96.27,29.29-.76,47.5-5.31,8.53-2.13,16.2-4.72,22.98-7.43Z"/>
    <path class="cls-1" d="M364.52,77.22c-5.88-2.37-11.62-1.54-14.15,1.74-.23.29-2.09,2.4-1.41,4.94.99,3.72,3.97,6.47,7.8,7.48,8.5,2.23,17.76,1.3,23.38-5.32.77-.91,3.51-4.83,3-9.69-1.16-11.22-18.98-17.69-30.53-21.89-5.38-1.95-23.1-8.02-52.18-8.97-17.45-.57-30.74.97-34.67,1.45-35.58,4.42-62.17,16.86-75.66,24.12-9.51,5.12-22.11,12.83-35.68,24.09,19.69-17.81,79.57-68.13,156.12-74.96,0,0,47.69-5.38,91.07,16.94,19.78,10.18,22.14,19.04,22.95,21.22,6.18,16.69-5.4,33.36-6.6,35.02-17.54,24.46-54.75,18.69-56.33,18.42-1.55-.27-3.71-.65-6.55-1.51-6.91-2.08-16.33-6.52-37.87-29.09-5.89-6.17-5.15-5.8-7.12-7.67-8.87-8.39-24.95-16.92-56.59-15.71,9.8-2.28,21.93-4.03,35.8-3.7,35.04.84,61.55,14.55,75.22,23.09Z"/>
  </g>
  <circle class="cls-2" cx="285.46" cy="285.46" r="282.46"/>
</svg>