<svg xmlns="http://www.w3.org/2000/svg" width="1200" height="630" viewBox="0 0 1200 630">
  <!-- Background -->
  <rect width="1200" height="630" fill="#1a1a1a"/>
  <!-- Gradient overlay -->
  <defs>
    <linearGradient id="bg" x1="0%" y1="0%" x2="100%" y2="100%">
      <stop offset="0%" style="stop-color:#1a1a1a;stop-opacity:1" />
      <stop offset="100%" style="stop-color:#2a2018;stop-opacity:1" />
    </linearGradient>
    <linearGradient id="accent" x1="0%" y1="0%" x2="100%" y2="0%">
      <stop offset="0%" style="stop-color:#D8660B;stop-opacity:1" />
      <stop offset="100%" style="stop-color:#C4A062;stop-opacity:1" />
    </linearGradient>
  </defs>
  <rect width="1200" height="630" fill="url(#bg)"/>

  <!-- Top border accent -->
  <rect x="0" y="0" width="1200" height="6" fill="url(#accent)"/>

  <!-- Anvil icon (simplified) -->
  <g transform="translate(80, 200) scale(2.5)">
    <path d="M12 36 L52 36 L48 28 L44 28 L44 20 L36 20 L36 28 L28 28 L28 20 L20 20 L20 28 L16 28 Z" fill="#D8660B"/>
    <rect x="8" y="36" width="48" height="8" rx="2" fill="#D8660B"/>
    <rect x="14" y="44" width="10" height="6" rx="1" fill="#C4A062"/>
    <rect x="40" y="44" width="10" height="6" rx="1" fill="#C4A062"/>
    <path d="M52 32 L60 30 L60 34 L52 36 Z" fill="#C4A062"/>
  </g>

  <!-- Main headline -->
  <text x="80" y="160" font-family="Georgia, serif" font-size="72" font-weight="bold" fill="#C4A062">ForgingApps</text>

  <!-- Tagline -->
  <text x="80" y="230" font-family="Georgia, serif" font-size="36" fill="#ffffff">Custom App Development &amp; AI Consulting</text>

  <!-- Sub text -->
  <text x="80" y="295" font-family="Arial, sans-serif" font-size="24" fill="#888888">Senior developers. Startup-friendly pricing. Sofia, Bulgaria.</text>

  <!-- Divider -->
  <rect x="80" y="340" width="200" height="3" fill="url(#accent)"/>

  <!-- Features row -->
  <text x="80" y="395" font-family="Arial, sans-serif" font-size="22" fill="#D8660B">Flutter  ·  React  ·  Kotlin  ·  AI Integration  ·  From €300</text>

  <!-- Bottom right URL -->
  <text x="1120" y="600" font-family="Arial, sans-serif" font-size="20" fill="#555555" text-anchor="end">forgingapps.com</text>
</svg>
